<mxfile host="app.diagrams.net" agent="Mozilla/5.0 (Windows NT 10.0; Win64; x64) AppleWebKit/537.36 (KHTML, like Gecko) Chrome/129.0.0.0 Safari/537.36" version="24.7.16">
  <diagram name="Página-1" id="3JNbSA6o8qXIhu1rEhel">
    <mxGraphModel dx="2783" dy="3374" grid="1" gridSize="10" guides="1" tooltips="1" connect="1" arrows="1" fold="1" page="1" pageScale="1" pageWidth="827" pageHeight="1169" math="0" shadow="0">
      <root>
        <mxCell id="0" />
        <mxCell id="1" parent="0" />
        <mxCell id="WeTvXNygOkHBIn4LGHg_-14" value="Base de datos" style="shape=folder;fontStyle=1;spacingTop=10;tabWidth=40;tabHeight=14;tabPosition=left;html=1;whiteSpace=wrap;" vertex="1" parent="1">
          <mxGeometry x="475" y="-1180" width="210" height="120" as="geometry" />
        </mxCell>
        <mxCell id="WeTvXNygOkHBIn4LGHg_-18" value="Autentificarse (UargFlow)" style="shape=folder;fontStyle=1;spacingTop=10;tabWidth=40;tabHeight=14;tabPosition=left;html=1;whiteSpace=wrap;" vertex="1" parent="1">
          <mxGeometry x="483" y="-720" width="210" height="120" as="geometry" />
        </mxCell>
        <mxCell id="WeTvXNygOkHBIn4LGHg_-24" value="" style="shape=folder;fontStyle=1;spacingTop=10;tabWidth=100;tabHeight=20;tabPosition=left;html=1;whiteSpace=wrap;" vertex="1" parent="1">
          <mxGeometry x="43" y="-985" width="350" height="170" as="geometry" />
        </mxCell>
        <mxCell id="WeTvXNygOkHBIn4LGHg_-25" value="&lt;b&gt;Proyectos&lt;/b&gt;" style="text;html=1;align=center;verticalAlign=middle;resizable=0;points=[];autosize=1;strokeColor=none;fillColor=none;" vertex="1" parent="1">
          <mxGeometry x="40" y="-990" width="80" height="30" as="geometry" />
        </mxCell>
        <mxCell id="WeTvXNygOkHBIn4LGHg_-26" value="" style="shape=folder;fontStyle=1;spacingTop=10;tabWidth=100;tabHeight=20;tabPosition=left;html=1;whiteSpace=wrap;" vertex="1" parent="1">
          <mxGeometry x="860" y="-1100" width="350" height="370" as="geometry" />
        </mxCell>
        <mxCell id="WeTvXNygOkHBIn4LGHg_-27" value="&lt;b&gt;Riesgos&lt;/b&gt;" style="text;html=1;align=center;verticalAlign=middle;resizable=0;points=[];autosize=1;strokeColor=none;fillColor=none;" vertex="1" parent="1">
          <mxGeometry x="862" y="-1105" width="70" height="30" as="geometry" />
        </mxCell>
        <mxCell id="WeTvXNygOkHBIn4LGHg_-28" value="Gestión de usuarios" style="shape=folder;fontStyle=1;spacingTop=10;tabWidth=40;tabHeight=14;tabPosition=left;html=1;whiteSpace=wrap;" vertex="1" parent="1">
          <mxGeometry x="53" y="-945" width="140" height="80" as="geometry" />
        </mxCell>
        <mxCell id="WeTvXNygOkHBIn4LGHg_-29" value="Gestión de proyectos" style="shape=folder;fontStyle=1;spacingTop=10;tabWidth=40;tabHeight=14;tabPosition=left;html=1;whiteSpace=wrap;" vertex="1" parent="1">
          <mxGeometry x="223" y="-945" width="140" height="80" as="geometry" />
        </mxCell>
        <mxCell id="WeTvXNygOkHBIn4LGHg_-30" value="Evaluación de riesgos" style="shape=folder;fontStyle=1;spacingTop=10;tabWidth=40;tabHeight=14;tabPosition=left;html=1;whiteSpace=wrap;" vertex="1" parent="1">
          <mxGeometry x="877" y="-1070" width="140" height="80" as="geometry" />
        </mxCell>
        <mxCell id="WeTvXNygOkHBIn4LGHg_-31" value="Clasificación de riesgos" style="shape=folder;fontStyle=1;spacingTop=10;tabWidth=40;tabHeight=14;tabPosition=left;html=1;whiteSpace=wrap;" vertex="1" parent="1">
          <mxGeometry x="1047" y="-1070" width="140" height="80" as="geometry" />
        </mxCell>
        <mxCell id="WeTvXNygOkHBIn4LGHg_-32" value="Estrategias de riesgos" style="shape=folder;fontStyle=1;spacingTop=10;tabWidth=40;tabHeight=14;tabPosition=left;html=1;whiteSpace=wrap;" vertex="1" parent="1">
          <mxGeometry x="877" y="-970" width="140" height="80" as="geometry" />
        </mxCell>
        <mxCell id="WeTvXNygOkHBIn4LGHg_-34" value="" style="endArrow=open;endSize=12;dashed=1;html=1;rounded=0;" edge="1" parent="1" source="WeTvXNygOkHBIn4LGHg_-18" target="WeTvXNygOkHBIn4LGHg_-14">
          <mxGeometry width="160" relative="1" as="geometry">
            <mxPoint x="680" y="-910" as="sourcePoint" />
            <mxPoint x="623" y="-750" as="targetPoint" />
          </mxGeometry>
        </mxCell>
        <mxCell id="WeTvXNygOkHBIn4LGHg_-35" value="" style="endArrow=open;endSize=12;dashed=1;html=1;rounded=0;" edge="1" parent="1" source="WeTvXNygOkHBIn4LGHg_-24" target="WeTvXNygOkHBIn4LGHg_-18">
          <mxGeometry width="160" relative="1" as="geometry">
            <mxPoint x="618" y="-810" as="sourcePoint" />
            <mxPoint x="453" y="-810" as="targetPoint" />
          </mxGeometry>
        </mxCell>
        <mxCell id="WeTvXNygOkHBIn4LGHg_-36" value="" style="endArrow=open;endSize=12;dashed=1;html=1;rounded=0;" edge="1" parent="1" source="WeTvXNygOkHBIn4LGHg_-26" target="WeTvXNygOkHBIn4LGHg_-18">
          <mxGeometry width="160" relative="1" as="geometry">
            <mxPoint x="361" y="-660" as="sourcePoint" />
            <mxPoint x="353" y="-750" as="targetPoint" />
          </mxGeometry>
        </mxCell>
        <mxCell id="WeTvXNygOkHBIn4LGHg_-39" value="Añadir y modificar riesgos" style="shape=folder;fontStyle=1;spacingTop=10;tabWidth=40;tabHeight=14;tabPosition=left;html=1;whiteSpace=wrap;" vertex="1" parent="1">
          <mxGeometry x="1047" y="-970" width="140" height="80" as="geometry" />
        </mxCell>
        <mxCell id="WeTvXNygOkHBIn4LGHg_-40" value="Exportar metricas" style="shape=folder;fontStyle=1;spacingTop=10;tabWidth=40;tabHeight=14;tabPosition=left;html=1;whiteSpace=wrap;" vertex="1" parent="1">
          <mxGeometry x="450" y="-400" width="260" height="150" as="geometry" />
        </mxCell>
        <mxCell id="WeTvXNygOkHBIn4LGHg_-41" value="Informes" style="shape=folder;fontStyle=1;spacingTop=10;tabWidth=40;tabHeight=14;tabPosition=left;html=1;whiteSpace=wrap;" vertex="1" parent="1">
          <mxGeometry x="965" y="-855" width="140" height="80" as="geometry" />
        </mxCell>
        <mxCell id="WeTvXNygOkHBIn4LGHg_-45" value="" style="endArrow=open;endSize=12;dashed=1;html=1;rounded=0;" edge="1" parent="1" source="WeTvXNygOkHBIn4LGHg_-24" target="WeTvXNygOkHBIn4LGHg_-14">
          <mxGeometry width="160" relative="1" as="geometry">
            <mxPoint x="310" y="-1090" as="sourcePoint" />
            <mxPoint x="598" y="-870" as="targetPoint" />
          </mxGeometry>
        </mxCell>
        <mxCell id="WeTvXNygOkHBIn4LGHg_-46" value="" style="endArrow=open;endSize=12;dashed=1;html=1;rounded=0;" edge="1" parent="1" source="WeTvXNygOkHBIn4LGHg_-26" target="WeTvXNygOkHBIn4LGHg_-14">
          <mxGeometry width="160" relative="1" as="geometry">
            <mxPoint x="505" y="-990" as="sourcePoint" />
            <mxPoint x="740" y="-880" as="targetPoint" />
          </mxGeometry>
        </mxCell>
        <mxCell id="WeTvXNygOkHBIn4LGHg_-48" value="" style="endArrow=open;endSize=12;dashed=1;html=1;rounded=0;" edge="1" parent="1" source="WeTvXNygOkHBIn4LGHg_-26" target="WeTvXNygOkHBIn4LGHg_-24">
          <mxGeometry width="160" relative="1" as="geometry">
            <mxPoint x="870" y="-805" as="sourcePoint" />
            <mxPoint x="703" y="-710" as="targetPoint" />
          </mxGeometry>
        </mxCell>
        <mxCell id="WeTvXNygOkHBIn4LGHg_-49" value="" style="endArrow=open;endSize=12;dashed=1;html=1;rounded=0;" edge="1" parent="1" source="WeTvXNygOkHBIn4LGHg_-40" target="WeTvXNygOkHBIn4LGHg_-18">
          <mxGeometry width="160" relative="1" as="geometry">
            <mxPoint x="597" y="-710" as="sourcePoint" />
            <mxPoint x="591" y="-1050" as="targetPoint" />
          </mxGeometry>
        </mxCell>
        <mxCell id="WeTvXNygOkHBIn4LGHg_-50" value="" style="endArrow=open;endSize=12;dashed=1;html=1;rounded=0;" edge="1" parent="1" source="WeTvXNygOkHBIn4LGHg_-40" target="WeTvXNygOkHBIn4LGHg_-26">
          <mxGeometry width="160" relative="1" as="geometry">
            <mxPoint x="611" y="-440" as="sourcePoint" />
            <mxPoint x="602" y="-590" as="targetPoint" />
          </mxGeometry>
        </mxCell>
        <mxCell id="WeTvXNygOkHBIn4LGHg_-51" value="" style="endArrow=open;endSize=12;dashed=1;html=1;rounded=0;" edge="1" parent="1" source="WeTvXNygOkHBIn4LGHg_-40" target="WeTvXNygOkHBIn4LGHg_-24">
          <mxGeometry width="160" relative="1" as="geometry">
            <mxPoint x="675" y="-440" as="sourcePoint" />
            <mxPoint x="898" y="-720" as="targetPoint" />
          </mxGeometry>
        </mxCell>
        <mxCell id="WeTvXNygOkHBIn4LGHg_-52" value="" style="endArrow=open;endSize=12;dashed=1;html=1;rounded=0;edgeStyle=orthogonalEdgeStyle;curved=1;" edge="1" parent="1" source="WeTvXNygOkHBIn4LGHg_-40" target="WeTvXNygOkHBIn4LGHg_-14">
          <mxGeometry width="160" relative="1" as="geometry">
            <mxPoint x="648" y="-390" as="sourcePoint" />
            <mxPoint x="902" y="-720" as="targetPoint" />
            <Array as="points">
              <mxPoint x="-100" y="-340" />
              <mxPoint x="-100" y="-1120" />
            </Array>
          </mxGeometry>
        </mxCell>
      </root>
    </mxGraphModel>
  </diagram>
</mxfile>
